<svg id="visual" viewBox="0 0 900 600" width="900" height="600" xmlns="http://www.w3.org/2000/svg" xmlns:xlink="http://www.w3.org/1999/xlink" version="1.1"><rect x="0" y="0" width="900" height="600" fill="#001220"></rect><path d="M0 394L21.5 391.2C43 388.3 86 382.7 128.8 376.3C171.7 370 214.3 363 257.2 366.3C300 369.7 343 383.3 385.8 383.5C428.7 383.7 471.3 370.3 514.2 362.8C557 355.3 600 353.7 642.8 366.3C685.7 379 728.3 406 771.2 411.5C814 417 857 401 878.5 393L900 385L900 601L878.5 601C857 601 814 601 771.2 601C728.3 601 685.7 601 642.8 601C600 601 557 601 514.2 601C471.3 601 428.7 601 385.8 601C343 601 300 601 257.2 601C214.3 601 171.7 601 128.8 601C86 601 43 601 21.5 601L0 601Z" fill="#fa7268"></path><path d="M0 439L21.5 432C43 425 86 411 128.8 415.5C171.7 420 214.3 443 257.2 451.8C300 460.7 343 455.3 385.8 447.7C428.7 440 471.3 430 514.2 422.3C557 414.7 600 409.3 642.8 406.5C685.7 403.7 728.3 403.3 771.2 406.7C814 410 857 417 878.5 420.5L900 424L900 601L878.5 601C857 601 814 601 771.2 601C728.3 601 685.7 601 642.8 601C600 601 557 601 514.2 601C471.3 601 428.7 601 385.8 601C343 601 300 601 257.2 601C214.3 601 171.7 601 128.8 601C86 601 43 601 21.5 601L0 601Z" fill="#ef5f67"></path><path d="M0 495L21.5 485.7C43 476.3 86 457.7 128.8 449.5C171.7 441.3 214.3 443.7 257.2 450.8C300 458 343 470 385.8 470C428.7 470 471.3 458 514.2 459.2C557 460.3 600 474.7 642.8 474.3C685.7 474 728.3 459 771.2 454.3C814 449.7 857 455.3 878.5 458.2L900 461L900 601L878.5 601C857 601 814 601 771.2 601C728.3 601 685.7 601 642.8 601C600 601 557 601 514.2 601C471.3 601 428.7 601 385.8 601C343 601 300 601 257.2 601C214.3 601 171.7 601 128.8 601C86 601 43 601 21.5 601L0 601Z" fill="#e34c67"></path><path d="M0 536L21.5 529.2C43 522.3 86 508.7 128.8 508C171.7 507.3 214.3 519.7 257.2 518.7C300 517.7 343 503.3 385.8 500.2C428.7 497 471.3 505 514.2 506.5C557 508 600 503 642.8 501.3C685.7 499.7 728.3 501.3 771.2 501.7C814 502 857 501 878.5 500.5L900 500L900 601L878.5 601C857 601 814 601 771.2 601C728.3 601 685.7 601 642.8 601C600 601 557 601 514.2 601C471.3 601 428.7 601 385.8 601C343 601 300 601 257.2 601C214.3 601 171.7 601 128.8 601C86 601 43 601 21.5 601L0 601Z" fill="#d53867"></path><path d="M0 540L21.5 543C43 546 86 552 128.8 555.7C171.7 559.3 214.3 560.7 257.2 556.8C300 553 343 544 385.8 541.2C428.7 538.3 471.3 541.7 514.2 541C557 540.3 600 535.7 642.8 534.7C685.7 533.7 728.3 536.3 771.2 541C814 545.7 857 552.3 878.5 555.7L900 559L900 601L878.5 601C857 601 814 601 771.2 601C728.3 601 685.7 601 642.8 601C600 601 557 601 514.2 601C471.3 601 428.7 601 385.8 601C343 601 300 601 257.2 601C214.3 601 171.7 601 128.8 601C86 601 43 601 21.5 601L0 601Z" fill="#c62368"></path></svg>