<svg id="visual" viewBox="0 0 900 600" width="900" height="600" xmlns="http://www.w3.org/2000/svg" xmlns:xlink="http://www.w3.org/1999/xlink" version="1.1"><rect x="0" y="0" width="900" height="600" fill="#cfcfcf"></rect><path d="M0 350L21.5 359.7C43 369.3 86 388.7 128.8 404.7C171.7 420.7 214.3 433.3 257.2 435.5C300 437.7 343 429.3 385.8 415.5C428.7 401.7 471.3 382.3 514.2 374.8C557 367.3 600 371.7 642.8 385.8C685.7 400 728.3 424 771.2 434.8C814 445.7 857 443.3 878.5 442.2L900 441L900 601L878.5 601C857 601 814 601 771.2 601C728.3 601 685.7 601 642.8 601C600 601 557 601 514.2 601C471.3 601 428.7 601 385.8 601C343 601 300 601 257.2 601C214.3 601 171.7 601 128.8 601C86 601 43 601 21.5 601L0 601Z" fill="#fa7268"></path><path d="M0 464L21.5 455.3C43 446.7 86 429.3 128.8 424.5C171.7 419.7 214.3 427.3 257.2 425.7C300 424 343 413 385.8 414.3C428.7 415.7 471.3 429.3 514.2 428.2C557 427 600 411 642.8 410.8C685.7 410.7 728.3 426.3 771.2 437.5C814 448.7 857 455.3 878.5 458.7L900 462L900 601L878.5 601C857 601 814 601 771.2 601C728.3 601 685.7 601 642.8 601C600 601 557 601 514.2 601C471.3 601 428.7 601 385.8 601C343 601 300 601 257.2 601C214.3 601 171.7 601 128.8 601C86 601 43 601 21.5 601L0 601Z" fill="#ef5f67"></path><path d="M0 473L21.5 471.3C43 469.7 86 466.3 128.8 467.3C171.7 468.3 214.3 473.7 257.2 475C300 476.3 343 473.7 385.8 469C428.7 464.3 471.3 457.7 514.2 460.3C557 463 600 475 642.8 483.3C685.7 491.7 728.3 496.3 771.2 492C814 487.7 857 474.3 878.5 467.7L900 461L900 601L878.5 601C857 601 814 601 771.2 601C728.3 601 685.7 601 642.8 601C600 601 557 601 514.2 601C471.3 601 428.7 601 385.8 601C343 601 300 601 257.2 601C214.3 601 171.7 601 128.8 601C86 601 43 601 21.5 601L0 601Z" fill="#e34c67"></path><path d="M0 505L21.5 507.2C43 509.3 86 513.7 128.8 511.5C171.7 509.3 214.3 500.7 257.2 497C300 493.3 343 494.7 385.8 498.8C428.7 503 471.3 510 514.2 517C557 524 600 531 642.8 529.2C685.7 527.3 728.3 516.7 771.2 508.3C814 500 857 494 878.5 491L900 488L900 601L878.5 601C857 601 814 601 771.2 601C728.3 601 685.7 601 642.8 601C600 601 557 601 514.2 601C471.3 601 428.7 601 385.8 601C343 601 300 601 257.2 601C214.3 601 171.7 601 128.8 601C86 601 43 601 21.5 601L0 601Z" fill="#d53867"></path><path d="M0 572L21.5 570C43 568 86 564 128.8 562C171.7 560 214.3 560 257.2 561.2C300 562.3 343 564.7 385.8 562.2C428.7 559.7 471.3 552.3 514.2 548.5C557 544.7 600 544.3 642.8 541.3C685.7 538.3 728.3 532.7 771.2 532.5C814 532.3 857 537.7 878.5 540.3L900 543L900 601L878.5 601C857 601 814 601 771.2 601C728.3 601 685.7 601 642.8 601C600 601 557 601 514.2 601C471.3 601 428.7 601 385.8 601C343 601 300 601 257.2 601C214.3 601 171.7 601 128.8 601C86 601 43 601 21.5 601L0 601Z" fill="#c62368"></path></svg>