<svg xmlns="http://www.w3.org/2000/svg" viewBox="0 0 500 500"><defs><style>.cls-1{fill:#e93cac;}.cls-2{fill:#fff;}</style></defs><title>Asset 1zumo-mobile</title><g id="Layer_2" data-name="Layer 2"><g id="Layer_1-2" data-name="Layer 1"><circle class="cls-1" cx="250" cy="250" r="250"/><g id="Symbols"><g id="Z"><g id="Path"><path class="cls-2" d="M327.47,227.39c10.06,0,18.92-8.46,18.92-20.16s-9.26-20.16-18.92-20.16H299.29a10.89,10.89,0,0,1,0-21.77h60.79c11.27,0,18.92-9.68,18.92-20.16S371,125,360.08,125H152.35c-12.88,0-23.35,10.89-23.35,24.6v39.11c0,8.47,6.44,15.73,14.49,15.73h19.33c8.05,0,14.49-6.86,14.49-15.73V177.39c0-.4,0-.8.4-.8s.4-.41.81-.41h70L135,330.22a30.92,30.92,0,0,0-6,18.54V354c0,11.69,8.86,21,19.73,21H310.56c12.88,0,23.35-10.88,23.35-24.59V311.26c0-8.46-6.44-15.72-14.49-15.72H300.1c-8.06,0-14.5,6.85-14.5,15.72v10.89a1.07,1.07,0,0,1-1.21,1.21H207.9a4.14,4.14,0,0,1-3.22-2,4.79,4.79,0,0,1,.41-4l63.6-85.88a11.48,11.48,0,0,1,9.67-4.84Z"/></g></g></g></g></g></svg>